<?xml version="1.0" encoding="UTF-8" standalone="no"?>
<!DOCTYPE svg PUBLIC "-//W3C//DTD SVG 1.1//EN" "http://www.w3.org/Graphics/SVG/1.1/DTD/svg11.dtd">
<svg width="100%" height="100%" viewBox="0 0 680 94" version="1.1" xmlns="http://www.w3.org/2000/svg" xmlns:xlink="http://www.w3.org/1999/xlink" xml:space="preserve" xmlns:serif="http://www.serif.com/" style="fill-rule:evenodd;clip-rule:evenodd;">
    <g transform="matrix(1,0,0,1,-49.9864,-369.372)">
        <g transform="matrix(0.441041,0,0,0.441041,27.7234,225.856)">
            <g id="path4176" transform="matrix(1,0,0,1,498.741,57.9098)">
                <path d="M50.386,477.665C50.259,477.538 50.155,430.358 50.155,372.821L50.155,268.207L455.692,268.207L455.692,477.896L253.154,477.896C141.758,477.896 50.513,477.792 50.386,477.665ZM143.858,452.913C144.4,452.37 144.454,429.746 143.915,428.738C143.567,428.089 142.985,428.069 124.364,428.069L105.172,428.069L105.172,282.377L104.285,282.039C103.057,281.573 79.728,281.592 78.852,282.06C78.193,282.413 78.183,283.737 78.183,367.538L78.183,452.659L78.961,452.971C80.222,453.478 143.349,453.421 143.858,452.913L143.858,452.913ZM181.946,453.112L183.027,452.896L183.027,282.129L182.249,281.92C180.929,281.566 157.883,281.675 156.925,282.039L156.038,282.377L156.038,452.659L156.816,452.972C157.69,453.323 180.261,453.449 181.946,453.112ZM255.699,452.636C255.879,452.351 256.029,451.494 256.031,450.733C256.035,449.311 256.708,443.7 257.609,437.584C257.889,435.681 258.115,433.657 258.111,433.086C258.107,432.515 258.331,430.569 258.611,428.761C259.084,425.695 260.014,418.251 260.318,415.093C260.48,413.409 261.108,408.41 261.599,404.885C261.799,403.458 262.113,400.967 262.298,399.349C262.483,397.731 262.86,394.539 263.137,392.256C263.413,389.972 263.801,386.546 263.998,384.643C264.195,382.74 264.509,380.436 264.695,379.522C264.882,378.609 265.034,377.307 265.034,376.628C265.034,375.95 265.262,373.817 265.541,371.888C265.82,369.959 266.283,366.512 266.569,364.228C266.855,361.944 267.265,358.752 267.479,357.135C267.694,355.517 267.997,352.948 268.152,351.425C268.486,348.155 269.02,343.816 269.707,338.795C269.981,336.797 270.29,334.384 270.395,333.432C270.71,330.57 271.562,323.327 272.126,318.726C272.417,316.347 272.804,313 272.985,311.287C273.167,309.574 273.469,307.238 273.656,306.096C274.103,303.376 274.666,298.662 275.074,294.222C275.255,292.259 275.478,290.531 275.57,290.382C275.662,290.233 275.896,288.428 276.091,286.37C276.348,283.661 276.34,282.502 276.061,282.166C275.752,281.794 273.207,281.703 263.175,281.707C256.3,281.71 250.504,281.827 250.295,281.967C249.747,282.334 249.46,283.728 248.887,288.795C248.372,293.345 247.844,297.908 246.885,306.096C246.595,308.571 246.207,312.074 246.021,313.882C245.836,315.69 245.529,318.337 245.338,319.764C244.679,324.701 244.215,328.6 243.938,331.529C243.785,333.147 243.493,335.638 243.288,337.065C243.083,338.493 242.67,341.84 242.371,344.505C242.071,347.169 241.598,350.927 241.319,352.856C241.041,354.785 240.809,357.121 240.804,358.047C240.799,358.972 240.634,360.43 240.436,361.287C240.238,362.143 239.932,364.401 239.756,366.304C239.581,368.207 239.214,371.633 238.942,373.917C238.061,381.304 237.344,387.678 236.995,391.218C236.808,393.121 236.5,395.331 236.311,396.129C236.123,396.927 235.963,398.406 235.956,399.416C235.949,400.426 235.719,402.498 235.444,404.02C235.169,405.543 234.941,407.507 234.937,408.385C234.933,409.263 234.768,410.82 234.569,411.845C234.371,412.87 234.072,415.24 233.906,417.112C233.739,418.984 233.51,420.608 233.396,420.722C232.844,421.274 232.458,419.871 232.133,416.126C231.937,413.868 231.698,411.895 231.603,411.742C231.508,411.588 231.293,409.865 231.125,407.914C230.812,404.273 230.428,401.115 229.55,394.977C229.274,393.048 229.044,390.712 229.039,389.786C229.034,388.861 228.874,387.423 228.682,386.591C228.49,385.759 228.181,383.501 227.994,381.573C227.808,379.646 227.433,376.2 227.162,373.917C226.506,368.405 225.693,361.19 225.269,357.135C225.08,355.327 224.769,352.68 224.578,351.252C223.705,344.734 223.404,342.224 223.17,339.487C223.031,337.87 222.732,335.145 222.505,333.432C221.798,328.112 221.095,322.421 220.964,320.975C220.763,318.74 220.053,312.879 219.644,310.076C219.436,308.648 219.136,306.079 218.977,304.366C218.817,302.654 218.463,299.384 218.19,297.1C217.917,294.816 217.45,290.69 217.153,287.93C216.855,285.171 216.607,282.885 216.601,282.851C216.595,282.817 216.346,282.545 216.047,282.246C215.573,281.771 213.9,281.702 202.941,281.702C193.308,281.702 190.297,281.803 190.029,282.135C189.685,282.56 190.012,288.519 190.442,289.66C190.55,289.946 190.791,291.737 190.978,293.64C191.165,295.543 191.562,299.046 191.86,301.425C193.009,310.591 194.381,322.108 194.786,325.981C194.955,327.592 195.25,329.85 195.443,330.998C195.828,333.287 196.491,338.635 196.862,342.429C196.992,343.761 197.288,346.252 197.52,347.965C197.752,349.678 198.172,352.948 198.453,355.231C198.734,357.515 199.132,360.551 199.337,361.979C199.543,363.406 199.842,365.82 200.002,367.342C200.287,370.039 200.916,375.354 201.907,383.432C202.176,385.621 202.551,388.891 202.742,390.699C202.932,392.507 203.241,394.92 203.428,396.062C203.816,398.44 204.503,403.972 204.694,406.269C204.834,407.955 205.663,414.55 206.259,418.726C206.462,420.154 206.755,422.567 206.909,424.09C207.268,427.636 207.852,432.206 208.482,436.388C208.755,438.205 208.979,440.386 208.979,441.235C208.979,442.084 209.135,443.323 209.327,443.988C209.519,444.653 209.777,446.74 209.902,448.626C210.078,451.302 210.269,452.197 210.772,452.699C211.388,453.316 212.356,453.339 233.393,453.249C252.483,453.168 255.414,453.087 255.699,452.636L255.699,452.636ZM346.868,440.699L346.868,428.242L308.114,427.896L307.936,380.318L323.705,380.318C333.913,380.318 339.71,380.192 340.143,379.96C340.785,379.616 340.813,379.11 340.813,367.503C340.813,360.849 340.774,355.369 340.726,355.327C340.678,355.284 333.321,355.167 324.377,355.067L308.114,354.885L308.114,307.135L347.05,306.956L346.868,281.875L315.207,281.777C297.794,281.722 283.04,281.769 282.422,281.879L281.297,282.079L281.297,367.505C281.297,448.572 281.328,452.94 281.903,453.091C282.236,453.178 296.989,453.229 314.688,453.203L346.868,453.155L346.868,440.698L346.868,440.699ZM406.384,452.999C409.436,452.638 412.993,452.009 414.342,451.592C418.912,450.179 421.51,449.079 424.375,447.345C427.141,445.671 430.404,442.5 432.497,439.451C433.658,437.761 434.2,436.712 435.612,433.432C436.102,432.293 436.934,429.444 437.582,426.685C438.104,424.466 438.193,422.308 438.199,411.806C438.205,400.962 438.13,399.198 437.554,396.754C436.217,391.085 434.161,385.69 432.147,382.567C431.779,381.996 431.373,381.295 431.244,381.01C430.587,379.548 426.461,374.552 423.372,371.477C420.113,368.232 413.237,362.671 412.484,362.671C412.301,362.671 412.099,362.554 412.035,362.411C411.972,362.269 410.544,361.233 408.862,360.11C402.703,355.997 394.967,348.877 392.129,344.708C391.405,343.645 390.696,342.723 390.553,342.659C390.41,342.596 390.294,342.335 390.294,342.079C390.294,341.822 390.099,341.405 389.861,341.151C389.449,340.709 388.66,339.147 387.712,336.892C386.554,334.137 386.367,332.547 386.238,324.345C386.113,316.312 386.141,315.858 386.891,313.792C387.677,311.628 390.393,308.348 391.402,308.343C391.649,308.342 392.318,308.077 392.889,307.753C393.726,307.279 394.872,307.162 398.804,307.15C401.885,307.14 403.861,307.276 404.168,307.519C404.435,307.731 405.043,307.998 405.518,308.113C406.69,308.396 408.853,310.235 409.814,311.764C410.949,313.572 411.747,317.59 411.747,321.5C411.747,324.263 411.847,324.919 412.294,325.091C413.168,325.426 437.474,325.322 438.014,324.981C438.42,324.723 438.463,323.498 438.271,317.633C438.021,310.029 437.257,305.422 435.612,301.598C433.689,297.13 432.141,294.747 429.124,291.614C427.489,289.916 421.678,285.854 420.884,285.854C420.647,285.854 419.935,285.594 419.301,285.277C416.732,283.989 417.382,284.184 411.228,282.859C406.926,281.933 399.599,281.55 394.081,281.963C388.973,282.345 385.417,282.84 383.555,283.428C377.602,285.309 376.239,285.901 372.808,288.096C370.983,289.263 367.508,292.482 365.888,294.505C365.073,295.522 362.958,298.923 362.958,299.215C362.958,299.327 362.746,299.908 362.486,300.508C359.83,306.644 359.345,310.106 359.334,323.051C359.325,333.377 359.527,336.541 360.406,339.833C361.172,342.699 362.028,345.48 362.324,346.062C362.784,346.967 363.996,349.823 363.996,350.001C363.996,350.319 367.276,355.625 368.209,356.817C368.719,357.467 369.744,358.778 370.488,359.73C372.148,361.853 376.315,365.924 378.875,367.923C379.922,368.74 380.96,369.567 381.182,369.76C381.404,369.953 382.622,370.811 383.888,371.667C387.119,373.853 393.094,378.108 393.96,378.84C394.358,379.177 395.404,380.049 396.284,380.777C399.652,383.565 404.151,388.426 406.428,391.737C407.802,393.735 410.017,398.03 410.017,398.697C410.017,398.979 410.158,399.359 410.33,399.539C410.973,400.213 411.537,404.893 411.664,410.595C411.895,420.995 410.472,424.639 405.204,427.141C403.794,427.811 403.051,427.895 398.598,427.885C393.61,427.873 393.569,427.867 391.6,426.769C389.624,425.668 388.217,424.51 388.217,423.986C388.217,423.833 388.039,423.531 387.821,423.313C386.765,422.256 386.141,419.253 386.141,415.221C386.141,412.993 386.047,410.924 385.931,410.623C385.745,410.137 384.265,410.076 372.825,410.076C361.891,410.076 359.864,410.153 359.506,410.585C359.192,410.964 359.132,412.631 359.275,417.073C359.592,426.967 360.259,430.004 363.584,436.7C364.893,439.335 365.777,440.549 368.148,442.969C369.766,444.62 371.79,446.426 372.647,446.984C374.635,448.278 378.603,450.214 379.266,450.214C379.545,450.214 379.922,450.361 380.103,450.54C380.676,451.109 386.59,452.436 390.813,452.943C394.006,453.327 403.327,453.361 406.384,452.999L406.384,452.999Z" style="fill-rule:nonzero;stroke:black;stroke-opacity:0;stroke-width:0.35px;"/>
            </g>
        </g>
        <g transform="matrix(0.441041,0,0,0.441041,27.7234,225.856)">
            <g id="path4178" transform="matrix(1,0,0,1,0,302.362)">
                <path d="M51.279,123.488L51.366,38.276L74.377,38.181C89.273,38.119 98.424,38.216 100.328,38.456C101.946,38.66 104.126,38.905 105.172,39C108.153,39.271 114.933,41.168 118.321,42.68C122.713,44.639 127.642,48.756 130.19,52.593C132.569,56.177 133.464,58.306 135.297,64.747C135.624,65.896 135.775,71.123 135.871,84.684C135.994,102.035 135.964,103.207 135.328,105.618C134.573,108.476 133.239,111.292 131.659,113.359C130.528,114.84 127.643,117.673 127.256,117.682C127.127,117.685 126.812,117.898 126.556,118.153C125.66,119.049 121.737,121.169 119.705,121.855C117.205,122.7 116.086,123.182 115.996,123.454C115.888,123.777 116.567,124.155 120.908,126.186C128.531,129.754 133.389,135.032 135.404,141.94C136.212,144.71 136.255,178.226 135.453,180.868C135.17,181.803 134.933,182.956 134.927,183.432C134.921,183.908 134.518,185.387 134.031,186.719C133.545,188.051 133.054,189.453 132.94,189.834C132.678,190.714 130.96,193.575 129.616,195.37C128.261,197.18 123.938,201.399 123.019,201.808C122.624,201.984 121.833,202.434 121.262,202.809C120.691,203.184 119.913,203.634 119.532,203.809C114.277,206.223 110.258,207.451 105.518,208.09C104.045,208.289 91.739,208.496 77.058,208.57L51.192,208.7L51.279,123.488L51.279,123.488ZM97.56,184.331C103.298,183.288 105.963,181.101 107.445,176.217C108.159,173.864 108.161,146.943 107.448,144.203C106.46,140.409 104.235,138.028 100.251,136.501C98.366,135.779 81.161,135.359 79.952,136.006L79.221,136.398L79.221,160.192C79.221,178.237 79.321,184.086 79.636,184.401C80.24,185.005 94.149,184.951 97.56,184.331L97.56,184.331ZM100.155,110.631C103.39,109.283 105.439,107.69 106.43,105.753C107.82,103.037 107.941,101.528 107.941,86.892C107.941,71.44 107.795,69.994 105.988,67.558C104.904,66.096 102.731,64.072 102.231,64.059C102.041,64.055 101.418,63.788 100.847,63.467C99.963,62.97 98.409,62.863 90.362,62.744C85.166,62.668 80.534,62.701 80.068,62.818L79.221,63.03L79.221,86.882C79.221,109.224 79.259,110.757 79.826,111.11C80.238,111.366 83.366,111.442 89.602,111.347C97.151,111.232 99.016,111.106 100.155,110.631Z" style="fill-rule:nonzero;stroke:black;stroke-opacity:0;stroke-width:0.35px;"/>
            </g>
        </g>
        <g transform="matrix(0.441041,0,0,0.441041,27.7234,225.856)">
            <g id="path4180" transform="matrix(1,0,0,1,0,302.362)">
                <path d="M150.241,123.484L150.328,38.276L164.169,38.276L178.875,38.276L178.875,184.478L221.089,184.478L221.089,208.57L150.154,208.57L150.241,123.484Z" style="fill-rule:nonzero;stroke:black;stroke-opacity:0;stroke-width:0.35px;"/>
            </g>
        </g>
        <g transform="matrix(0.441041,0,0,0.441041,27.7234,225.856)">
            <g id="path4182" transform="matrix(1,0,0,1,0,302.362)">
                <path d="M250.213,38.4C250.213,38.4 262.032,38.148 275.069,38.194L298.771,38.276L299.959,47.101C300.264,49.811 300.502,51.673 301.926,62.498C302.201,64.591 302.573,67.55 302.751,69.072C302.929,70.595 303.229,72.775 303.417,73.917C303.741,75.884 304.175,79.212 304.818,84.643C304.975,85.975 305.271,88.155 305.475,89.487C305.679,90.82 306.085,93.739 306.378,95.975C306.67,98.211 307.149,101.87 307.441,104.106C307.733,106.343 308.199,109.51 308.476,111.144C308.752,112.778 308.983,114.724 308.987,115.469C308.992,116.214 309.144,117.466 309.325,118.252C309.507,119.037 309.815,121.139 310.011,122.923C310.206,124.706 310.596,127.878 310.876,129.972C311.157,132.065 311.536,135.024 311.719,136.546C312.11,139.809 312.676,143.898 313.203,147.273C313.411,148.605 313.637,150.318 313.707,151.079C313.776,151.84 314.059,154.098 314.335,156.096C314.612,158.095 315.083,161.598 315.382,163.882C315.681,166.166 316.091,169.124 316.292,170.456C316.494,171.789 316.783,173.968 316.933,175.301C317.349,178.985 317.973,183.714 318.35,186.027C318.67,187.992 318.934,190.103 319.712,196.927C319.896,198.545 320.191,200.491 320.368,201.252C320.544,202.013 320.797,203.999 320.93,205.664L321.171,208.57L293.062,208.57L287.106,172.21L262.171,172.21C261.253,173.511 261.428,175.019 261.233,176.339C261.014,177.861 260.666,179.963 260.46,181.01C260.255,182.057 259.971,183.925 259.831,185.162C259.59,187.283 259.296,189.093 258.399,193.986C258.189,195.128 257.891,197.152 257.736,198.484C257.359,201.729 256.504,207.376 256.22,208.27L227.521,208.57L250.213,38.4ZM284.001,147.839C284.493,147.527 284.327,143.066 283.695,139.66C283.519,138.709 283.218,136.295 283.025,134.297C282.833,132.299 282.435,128.64 282.14,126.166C280.176,109.669 279.708,105.61 279.249,101.079C279.046,99.081 278.732,96.512 278.55,95.37C278.137,92.779 277.461,87.2 277.145,83.778C276.534,77.167 275.172,67.691 274.707,66.828C274.493,66.429 274.386,66.506 274.23,67.174C273.994,68.187 273.428,72.983 273.025,77.377C272.868,79.09 272.568,81.659 272.358,83.086C271.829,86.686 271.263,91.338 270.905,95.024C270.739,96.737 270.44,98.977 270.241,100.002C270.041,101.027 269.878,102.552 269.878,103.391C269.878,104.23 269.654,106.428 269.379,108.275C268.891,111.559 268.006,118.74 267.622,122.532C267.441,124.327 267.254,125.933 265.887,137.411C265.582,139.981 265.212,143.095 265.067,144.332C264.922,145.569 264.929,146.931 265.083,147.359L265.363,148.138L274.455,148.133C279.455,148.13 283.751,147.998 284.001,147.839L284.001,147.839L284.001,147.839Z" style="fill-rule:nonzero;stroke:black;stroke-opacity:0;stroke-width:0.35px;"/>
            </g>
        </g>
        <g transform="matrix(0.441041,0,0,0.441041,27.7234,225.856)">
            <g id="path4184" transform="matrix(1,0,0,1,0,302.362)">
                <path d="M363.522,210.764C356.53,209.943 348.849,208.347 345.119,204.671C344.58,204.14 343.911,203.847 343.78,203.847C343.65,203.847 342.379,202.718 340.957,201.339C333.931,196.277 332.853,189.477 331.706,182.206C331.237,179.172 331.169,171.7 331.169,123.402C331.169,74.624 330.967,65.954 331.449,63.038C331.845,60.099 333.003,58.383 333.577,56.962C334.44,54.828 336.249,51.282 337.181,49.9C339.487,46.48 344.115,42.562 347.951,40.782C348.712,40.429 349.776,39.915 350.314,39.641C350.853,39.366 351.51,39.141 351.773,39.141C352.037,39.141 352.764,38.921 353.389,38.651C358.509,36.441 369.522,35.326 379.644,35.994C382.766,36.199 385.983,36.525 386.792,36.717C387.6,36.908 388.924,37.23 389.733,37.431C390.542,37.632 391.748,37.931 392.414,38.096C397.4,39.328 404.229,43.19 407.408,46.576C410.399,49.761 413.061,54.498 414.312,58.865C415.732,63.818 415.974,65.856 415.871,72.013L415.771,78.069L388.204,78.069C388.051,77.829 388.057,76.606 388.054,74.526C388.043,66.769 385.548,62.408 378.959,60.582C374.637,59.385 369.271,59.809 365.245,61.668C363.625,62.415 361.337,64.74 360.513,66.477C359.244,69.148 359.196,71.232 359.196,123.655C359.196,182.685 359.042,179.571 362.138,183.037C363.584,184.657 365.511,185.819 367.8,186.452C370.287,187.141 376.819,187.222 378.932,186.59C385.605,184.595 387.911,181.249 387.921,173.546C387.924,171.466 388.051,169.568 388.204,169.328C388.421,168.986 391.44,168.911 402.126,168.982L415.771,169.072L415.771,175.647C415.771,182.138 415.561,183.965 414.322,188.276C411.811,197.009 405.478,203.934 396.74,207.503C396.169,207.736 395.312,208.096 394.837,208.303C393.147,209.038 387.341,210.289 383.418,210.763C380.425,211.124 366.597,211.126 363.522,210.765L363.522,210.764Z" style="fill-rule:nonzero;stroke:black;stroke-opacity:0;stroke-width:0.35px;"/>
            </g>
        </g>
        <g transform="matrix(0.441041,0,0,0.441041,27.7234,225.856)">
            <g id="path4186" transform="matrix(1,0,0,1,0,302.362)">
                <path d="M430.216,123.484L430.304,38.276L457.985,38.276L458.073,74.003C458.122,93.653 458.253,109.73 458.364,109.73C458.784,109.73 459.863,108.135 460.077,107.198C460.199,106.662 460.518,105.805 460.784,105.295C461.05,104.784 461.269,104.103 461.27,103.781C461.271,103.459 461.428,103.1 461.619,102.982C461.809,102.865 461.965,102.505 461.967,102.183C461.968,101.862 462.187,101.18 462.453,100.67C462.719,100.159 463.042,99.266 463.17,98.684C463.297,98.103 463.546,97.538 463.721,97.429C463.897,97.321 464.042,96.969 464.043,96.647C464.044,96.325 464.278,95.616 464.562,95.071C464.846,94.526 465.079,93.821 465.079,93.504C465.079,93.188 465.29,92.622 465.547,92.246C465.805,91.871 466.101,91.174 466.205,90.699C466.309,90.223 466.734,88.977 467.149,87.93C467.565,86.884 467.984,85.716 468.08,85.335C468.176,84.955 468.467,84.176 468.727,83.605C468.986,83.034 469.687,81.166 470.283,79.453C470.879,77.74 471.489,76.1 471.639,75.808C471.789,75.517 472.021,74.779 472.155,74.169C472.289,73.559 472.542,72.971 472.718,72.862C472.893,72.753 473.037,72.425 473.037,72.132C473.037,71.839 473.284,71.03 473.585,70.336C473.886,69.641 474.354,68.561 474.623,67.936C474.893,67.311 475.113,66.528 475.113,66.196C475.113,65.865 475.313,65.286 475.558,64.91C475.803,64.535 476.282,63.372 476.624,62.325C477.205,60.542 477.472,59.805 478.723,56.529C478.996,55.815 479.712,53.83 480.316,52.117C480.92,50.404 481.534,48.692 481.682,48.311C482.539,46.104 483.202,44.361 483.591,43.294C483.833,42.628 484.27,41.46 484.561,40.699C484.851,39.937 485.176,39.04 485.282,38.705L514.818,38.505C514.408,39.552 512.592,45.102 511.92,47.1C511.249,49.098 510.478,51.224 510.207,51.824C509.937,52.423 509.715,53.154 509.715,53.447C509.715,53.74 509.56,54.076 509.369,54.193C509.179,54.311 509.023,54.621 509.023,54.883C509.023,55.145 508.844,55.798 508.625,56.333C508.174,57.437 506.653,61.659 505.407,65.266C504.947,66.598 504.235,68.545 503.826,69.591C503.417,70.638 503.002,71.806 502.904,72.186C502.806,72.567 502.508,73.369 502.242,73.969C501.975,74.569 501.757,75.184 501.757,75.335C501.757,75.706 499.635,81.574 498.641,83.951C498.402,84.522 498.085,85.456 497.936,86.027C497.787,86.598 497.324,87.922 496.908,88.968C496.492,90.015 496.067,91.261 495.963,91.737C495.859,92.212 495.563,92.909 495.305,93.284C495.047,93.66 494.836,94.238 494.836,94.57C494.836,94.902 494.612,95.685 494.337,96.31C494.062,96.935 493.348,98.847 492.75,100.56C492.152,102.273 491.52,103.945 491.346,104.275C491.172,104.606 491.03,105.024 491.03,105.204C491.03,105.385 490.851,105.971 490.632,106.506C490.181,107.61 488.66,111.832 487.414,115.439C486.954,116.771 486.233,118.718 485.813,119.764C484.798,122.295 484.879,122.933 485.52,124.37C485.804,125.007 485.851,127.169 485.949,127.55C486.047,127.93 486.466,129.098 486.879,130.145C487.292,131.192 487.759,132.515 487.916,133.086C488.074,133.657 488.543,134.981 488.959,136.027C489.375,137.074 489.798,138.32 489.9,138.795C490.002,139.271 490.199,139.816 490.339,140.007C490.478,140.197 490.929,141.365 491.34,142.602C491.752,143.839 492.227,145.162 492.396,145.543C498.424,164.992 507,183.323 512.825,202.636C513.39,204.569 514.26,206.787 514.584,207.117C514.761,207.298 514.905,207.916 514.905,208.259C514.905,208.849 514.123,208.881 500.026,208.881C487.184,208.881 485.147,208.812 485.147,208.374C485.147,208.095 484.93,207.166 484.664,206.541L458.362,137.411C458.25,137.411 458.158,153.449 458.158,173.051L458.158,208.881L430.129,208.881L430.216,123.484L430.216,123.484Z" style="fill-rule:nonzero;stroke:black;stroke-opacity:0;stroke-width:0.35px;"/>
            </g>
        </g>
        <g transform="matrix(0.441041,0,0,0.441041,27.7234,225.856)">
            <g id="path4188" transform="matrix(1,0,0,1,938.165,-198.429)">
                <path d="M51.103,623.484L51.19,538.276L93.751,538.276L117.58,653.575L143.232,538.276L185.792,538.276L185.88,623.484L185.966,708.692L157.245,708.692L157.24,653.415C157.237,620.059 157.108,597.937 156.914,597.631C156.657,597.225 156.52,597.315 156.227,598.086L131.881,708.692L103.176,708.692L79.162,594.829L79.045,708.692L51.016,708.692L51.103,623.484L51.103,623.484Z" style="fill-rule:nonzero;stroke:black;stroke-opacity:0;stroke-width:0.35px;"/>
            </g>
        </g>
        <g transform="matrix(0.441041,0,0,0.441041,27.7234,225.856)">
            <g id="path4190" transform="matrix(1,0,0,1,938.165,-198.429)">
                <path d="M195.998,685.854C195.998,685.854 196.471,681.979 196.659,680.837C197.127,677.988 197.729,673.428 198.075,670.11C198.233,668.588 198.528,666.641 198.73,665.785C198.932,664.929 199.101,663.619 199.106,662.874C199.111,662.129 199.34,660.183 199.617,658.548C200.183,655.203 200.838,650.455 201.197,647.1C201.329,645.863 201.62,643.605 201.844,642.083C202.634,636.712 202.973,634.243 203.285,631.602C203.459,630.135 203.836,627.143 204.124,624.955C204.412,622.766 204.804,619.574 204.996,617.861C205.187,616.148 205.499,614.094 205.689,613.296C205.879,612.498 206.035,611.262 206.035,610.548C206.035,609.834 206.261,607.84 206.537,606.116C206.813,604.393 207.286,601.114 207.588,598.83C207.89,596.546 208.303,593.588 208.506,592.256C208.71,590.923 208.999,588.666 209.149,587.238C209.299,585.811 209.59,583.553 209.795,582.221C210,580.889 210.401,578.008 210.685,575.82C210.969,573.631 211.373,570.595 211.583,569.072C211.792,567.55 212.104,565.136 212.275,563.709C212.446,562.282 212.827,559.323 213.122,557.135C213.417,554.946 213.809,551.832 213.993,550.214C214.177,548.596 214.483,546.261 214.673,545.024C215.029,542.823 215.088,540.403 215.87,538.373C233.041,537.816 243.973,538.105 263.612,538.179C264.062,541.073 264.529,544.04 264.836,546.927C264.996,548.449 265.3,550.824 265.511,552.204C265.723,553.583 266.068,555.841 266.279,557.221C266.489,558.601 266.787,560.898 266.941,562.325C267.292,565.572 267.905,570.163 268.351,572.878C268.539,574.02 268.836,576.278 269.012,577.896C269.311,580.652 269.651,583.251 270.936,592.602C271.223,594.695 271.612,597.887 271.8,599.695C271.988,601.503 272.294,603.434 272.479,603.985C272.665,604.537 272.817,605.62 272.817,606.393C272.817,607.165 273.039,609.282 273.31,611.099C273.776,614.211 274.26,617.71 275.431,626.425C275.706,628.471 276.163,631.819 276.446,633.865C276.73,635.91 277.036,638.285 277.126,639.141C277.217,639.998 277.516,642.333 277.791,644.332C278.066,646.33 278.548,649.911 278.863,652.29C279.178,654.669 279.67,658.328 279.955,660.422C280.241,662.515 280.544,664.851 280.63,665.612C280.868,667.734 281.736,674.304 282.161,677.204C282.371,678.631 282.685,681.173 282.861,682.853C283.036,684.533 283.338,686.48 283.532,687.179C283.727,687.878 283.886,689.04 283.887,689.763C283.888,690.485 284.116,692.587 284.393,694.434L286.246,708.692L257.761,708.692L252.246,673.065C252.246,673.065 238.803,672.722 227.372,672.729L221.121,708.692L192.89,708.633L195.998,685.854ZM249.052,644.159C249.018,642.065 248.831,639.574 248.638,638.622C248.27,636.815 247.735,632.109 247.209,626.074C247.039,624.121 246.809,622.375 246.697,622.195C246.586,622.014 246.347,620.187 246.168,618.134C245.988,616.081 245.689,613.311 245.503,611.979C244.788,606.861 244.343,603.22 244.088,600.387C243.841,597.654 243.598,595.674 242.689,588.968C242.495,587.541 242.181,584.894 241.992,583.086C240.678,570.566 240.077,566.722 239.462,566.925C239.252,566.994 238.991,568.206 238.883,569.619C238.695,572.085 238.443,574.099 237.332,582.048C237.052,584.046 236.821,586.382 236.819,587.238C236.816,588.095 236.667,589.43 236.488,590.205C236.309,590.98 235.99,593.238 235.779,595.222C235.178,600.885 233.949,611.634 232.814,621.148C232.53,623.527 232.17,626.797 232.014,628.415C231.857,630.032 231.556,632.524 231.345,633.951C230.369,640.566 229.76,646.902 230.033,647.615C230.213,648.082 231.428,648.138 239.676,648.057L249.114,647.965L249.052,644.159L249.052,644.159Z" style="fill-rule:nonzero;stroke:black;stroke-opacity:0;stroke-width:0.35px;"/>
            </g>
        </g>
        <g transform="matrix(0.441041,0,0,0.441041,27.7234,225.856)">
            <g id="path4192" transform="matrix(1,0,0,1,938.165,-198.429)">
                <path d="M320.913,636.096C320.913,580.095 320.819,563.406 320.498,563.086C320.191,562.779 316.869,562.671 307.695,562.671L295.308,562.671L295.308,538.1L334.841,538.188L374.374,538.276L374.374,562.844L349.114,562.844L349.027,635.768L348.939,708.692L320.913,708.692L320.913,636.097L320.913,636.096Z" style="fill-rule:nonzero;stroke:black;stroke-opacity:0;stroke-width:0.35px;"/>
            </g>
        </g>
        <g transform="matrix(0.441041,0,0,0.441041,27.7234,225.856)">
            <g id="path4194" transform="matrix(1,0,0,1,938.165,-198.429)">
                <path d="M414.857,636.096C414.857,580.095 414.762,563.406 414.441,563.086C414.134,562.779 410.812,562.671 401.639,562.671L389.251,562.671L389.251,538.1L468.317,538.276L468.408,550.301C468.458,556.914 468.458,562.359 468.408,562.401C468.358,562.442 462.634,562.559 455.687,562.66L443.357,562.844L442.883,708.692L414.857,708.692L414.857,636.097L414.857,636.096Z" style="fill-rule:nonzero;stroke:black;stroke-opacity:0;stroke-width:0.35px;"/>
            </g>
        </g>
        <g transform="matrix(0.441041,0,0,0.441041,27.7234,225.856)">
            <g id="path4196" transform="matrix(1,0,0,1,938.165,-198.429)">
                <path d="M483.109,623.484L483.196,538.276L553.784,538.276L553.881,549.695C553.934,555.975 553.892,561.464 553.788,561.892L553.598,562.671L532.739,562.671C516.978,562.671 511.78,562.772 511.466,563.086C511.151,563.401 511.051,569.212 511.051,587.122C511.051,610.122 511.068,610.753 511.72,611.102C512.155,611.335 518.379,611.46 529.54,611.46L546.691,611.46L546.691,635.681L529.758,635.681C519.594,635.681 512.471,635.816 511.938,636.019L511.051,636.356L511.051,660.014C511.051,682.451 511.083,683.7 511.68,684.241C512.248,684.754 514.356,684.819 533.047,684.9L553.784,684.989L553.875,696.84L553.966,708.692L483.022,708.692L483.109,623.484L483.109,623.484Z" style="fill-rule:nonzero;stroke:black;stroke-opacity:0;stroke-width:0.35px;"/>
            </g>
        </g>
        <g transform="matrix(0.441041,0,0,0.441041,27.7234,225.856)">
            <g id="path4198" transform="matrix(1,0,0,1,938.165,-198.429)">
                <path d="M568.205,623.484L568.293,538.276L591.476,538.181C606.904,538.117 615.643,538.213 617.6,538.467C619.218,538.676 621.632,538.989 622.964,539.162C625.708,539.519 628.725,540.209 630.166,540.811C630.702,541.035 631.34,541.218 631.584,541.218C632.431,541.218 637.656,543.826 640.227,545.533C642.271,546.89 646.015,550.707 647.531,552.982C649.761,556.326 651.23,560.12 652.355,565.439C653.187,569.375 653.166,608.911 652.33,611.775C651.781,613.658 651.021,615.599 650.421,616.65C650.258,616.936 649.982,617.497 649.807,617.898C649.257,619.16 645.664,622.793 643.516,624.259C641.055,625.939 637.821,627.722 637.229,627.725C636.996,627.726 636.405,627.936 635.917,628.19C635.428,628.445 634.611,628.759 634.1,628.887C633.589,629.015 633.171,629.262 633.171,629.436C633.171,629.818 635.032,631.183 635.552,631.183C636.209,631.183 641.735,634.211 643.624,635.606C645.651,637.104 649.307,640.907 649.813,642.045C649.992,642.446 650.525,643.461 650.997,644.3C651.47,645.138 651.857,646.093 651.857,646.42C651.857,646.747 652.09,647.574 652.376,648.258C652.823,649.329 652.895,653.571 652.895,679.096L652.894,708.692L625.213,708.692L625.192,681.269C625.181,666.187 625.034,653.147 624.865,652.29C624.247,649.155 624.054,648.623 622.891,646.856C621.575,644.855 619.553,643.462 616.562,642.494C614.896,641.954 613.521,641.891 605.49,641.98L596.32,642.083L596.232,675.387L596.143,708.692L568.118,708.692L568.205,623.484L568.205,623.484ZM618.375,616.187C620.696,615.056 622.764,613.169 623.554,611.46C625.001,608.331 625.04,607.77 625.04,590.007C625.04,572.565 625.032,572.439 623.731,568.726C623.355,567.655 619.859,564.057 619.189,564.053C618.981,564.052 618.344,563.785 617.773,563.461C616.879,562.952 615.379,562.853 606.943,562.742C599.655,562.647 597.023,562.721 596.649,563.031C596.218,563.388 596.147,567.216 596.147,589.98C596.147,610.739 596.241,616.608 596.58,616.953C596.916,617.297 599.171,617.368 606.701,617.275L616.389,617.155L618.375,616.187Z" style="fill-rule:nonzero;stroke:black;stroke-opacity:0;stroke-width:0.35px;"/>
            </g>
        </g>
    </g>
</svg>
