<?xml version="1.0" encoding="UTF-8" standalone="no"?><!DOCTYPE svg PUBLIC "-//W3C//DTD SVG 1.1//EN" "http://www.w3.org/Graphics/SVG/1.1/DTD/svg11.dtd"><svg width="100%" height="100%" viewBox="0 0 1348 318" version="1.1" xmlns="http://www.w3.org/2000/svg" xmlns:xlink="http://www.w3.org/1999/xlink" xml:space="preserve" xmlns:serif="http://www.serif.com/" style="fill-rule:evenodd;clip-rule:evenodd;stroke-linejoin:round;stroke-miterlimit:2;"><g id="_2" serif:id="2"><path d="M494.197,244.109c-21.653,26.188 -39.955,44.894 -54.906,56.117c-14.951,11.223 -27.411,16.835 -37.378,16.835c-5.499,0 -11.6,-3.663 -18.302,-10.99c-6.703,-7.326 -11.944,-18.939 -15.725,-34.839c-2.406,-9.353 -3.609,-20.498 -3.609,-33.436c0,-12.938 1.719,-26.968 5.156,-42.088c3.437,-15.12 8.592,-30.786 15.467,-46.998c6.874,-16.212 15.982,-32.267 27.324,-48.167c7.562,-11.535 13.061,-20.966 16.498,-28.292c3.437,-7.327 5.585,-13.016 6.444,-17.069c0.86,-4.053 0.688,-6.859 -0.515,-8.418c-1.203,-1.559 -2.664,-2.338 -4.382,-2.338c-1.719,-0 -4.555,1.403 -8.507,4.209c-3.953,2.806 -10.054,8.651 -18.302,17.536c-8.249,8.885 -19.162,21.668 -32.738,38.347c-13.577,16.679 -30.676,39.048 -51.298,67.106c-6.53,9.042 -12.373,17.537 -17.529,25.487c-5.156,7.95 -10.311,16.679 -15.467,26.188c-5.155,9.509 -10.397,20.498 -15.724,32.969c-5.328,12.47 -11.428,27.746 -18.302,45.828c-1.032,1.871 -2.234,3.04 -3.609,3.508c-1.375,0.467 -2.922,0.857 -4.64,1.169c-2.75,0.312 -5.328,-0.78 -7.734,-3.274c-2.406,-2.494 -4.468,-5.845 -6.186,-10.054c-1.719,-4.209 -3.008,-8.963 -3.867,-14.263c-0.859,-5.3 -0.945,-10.6 -0.258,-15.9c1.031,-4.988 2.406,-10.444 4.125,-16.367c1.718,-5.924 4.812,-13.25 9.28,-21.979c3.093,-6.547 6.53,-13.796 10.311,-21.746c3.781,-7.95 7.561,-16.211 11.342,-24.785c3.781,-8.573 7.218,-17.069 10.311,-25.486c3.094,-8.418 5.499,-16.368 7.218,-23.85c5.499,-21.823 9.538,-39.048 12.116,-51.674c2.577,-12.627 3.866,-22.135 3.866,-28.526c0,-6.392 -1.117,-10.522 -3.351,-12.393c-2.234,-1.871 -5.07,-2.962 -8.507,-3.273c-3.093,-0.312 -8.334,2.805 -15.724,9.352c-7.39,6.547 -17.959,18.238 -31.707,35.074c-5.843,7.482 -12.631,17.068 -20.364,28.759c-7.734,11.692 -15.725,25.097 -23.974,40.218c-8.248,15.12 -16.583,31.721 -25.004,49.803c-8.421,18.083 -16.24,37.1 -23.458,57.053c-1.718,6.858 -3.179,13.561 -4.382,20.108c-1.203,6.547 -1.461,12.938 -0.773,19.174c0.343,2.805 0.171,4.598 -0.516,5.378c-0.687,0.779 -2.062,1.013 -4.124,0.701c-4.125,-0.312 -8.851,-3.196 -14.178,-8.651c-5.328,-5.456 -9.022,-11.769 -11.085,-18.94c-0.687,-1.247 -1.031,-2.416 -1.031,-3.507c0,-1.091 0.172,-2.416 0.516,-3.975c12.373,-25.565 22.341,-50.739 29.902,-75.524c7.562,-24.785 13.233,-47.388 17.013,-67.808c3.781,-20.421 5.843,-37.957 6.187,-52.61c0.344,-14.653 -0.516,-24.785 -2.578,-30.397c-2.749,-6.547 -6.874,-11.613 -12.373,-15.198c-5.499,-3.585 -9.796,-5.378 -12.889,-5.378c-4.812,-0.312 -12.631,1.559 -23.458,5.612c-10.826,4.053 -25.176,12.47 -43.049,25.252c-15.123,10.912 -26.637,19.953 -34.542,27.124c-7.905,7.17 -14.779,11.067 -20.622,11.691c-2.062,-0 -3.695,-0.39 -4.898,-1.169c-1.203,-0.78 -2.148,-2.572 -2.836,-5.378l-1.546,-3.741c-1.031,-1.871 -1.461,-3.508 -1.289,-4.911c0.172,-1.403 0.773,-4.13 1.804,-8.183c0,-2.806 1.203,-6.08 3.609,-9.821c2.406,-3.741 5.328,-7.404 8.765,-10.989c3.437,-3.586 7.131,-7.015 11.084,-10.289c3.953,-3.273 7.476,-5.845 10.569,-7.716c1.719,-0.935 2.836,-0.857 3.351,0.234c0.516,1.091 -0.086,2.416 -1.804,3.975c-6.187,5.3 -10.226,9.743 -12.116,13.328c-1.89,3.585 -2.664,7.092 -2.32,10.522c24.059,-16.523 46.486,-29.228 67.28,-38.113c20.794,-8.885 36.003,-13.639 45.627,-14.263c3.437,-0 7.304,1.637 11.6,4.91c4.296,3.274 8.507,7.171 12.631,11.691c4.124,4.521 7.819,9.197 11.085,14.03c3.265,4.832 5.585,8.807 6.96,11.924c2.062,8.73 0.859,26.032 -3.609,51.909c-1.719,12.47 -4.554,27.201 -8.507,44.192c-3.953,16.991 -9.194,36.398 -15.725,58.221c2.406,-7.794 5.156,-15.51 8.249,-23.148c3.094,-7.638 6.187,-15.043 9.28,-22.213c11.343,-23.382 23.114,-44.114 35.316,-62.196c12.201,-18.083 22.599,-31.8 31.191,-41.153c9.624,-9.976 19.162,-18.316 28.614,-25.019c9.451,-6.703 16.068,-10.054 19.848,-10.054c5.5,-0 11.429,2.728 17.787,8.184c6.359,5.456 10.741,11.769 13.147,18.939c0.687,2.494 0.601,7.716 -0.258,15.666c-0.859,7.95 -2.75,18.16 -5.671,30.631c-2.922,12.47 -6.702,26.655 -11.342,42.555c-4.64,15.9 -10.226,32.735 -16.756,50.505c-7.218,19.018 -15.81,39.282 -25.778,60.794c4.468,-8.106 9.28,-16.368 14.436,-24.785c5.155,-8.418 10.483,-16.835 15.982,-25.253c10.655,-15.9 21.739,-31.566 33.253,-46.998c11.515,-15.432 23.115,-30.163 34.801,-44.192c11.685,-14.029 23.285,-27.201 34.8,-39.516c11.514,-12.314 22.77,-23.46 33.769,-33.436c2.062,-2.182 5.155,-3.274 9.28,-3.274c2.062,0 4.64,1.092 7.733,3.274c3.093,2.182 6.187,4.676 9.28,7.482c3.093,2.806 5.757,5.69 7.991,8.652c2.234,2.961 3.523,5.066 3.867,6.313c1.031,3.117 0.429,7.17 -1.805,12.158c-2.234,4.989 -7.303,12.938 -15.209,23.85c-11.686,17.459 -21.739,35.229 -30.16,53.311c-8.42,18.082 -15.123,35.541 -20.106,52.376c-4.984,16.835 -8.077,32.579 -9.28,47.232c-1.203,14.653 -0.43,27.123 2.32,37.411c5.843,19.329 15.294,25.565 28.355,18.706c6.187,-4.053 11.944,-7.95 17.271,-11.691c5.328,-3.741 10.741,-7.95 16.24,-12.626c5.5,-4.677 11.6,-10.133 18.303,-16.368c6.702,-6.235 14.693,-13.873 23.973,-22.914l5.155,14.029Z" style="fill:url(#_Radial1);fill-rule:nonzero;"/><path d="M494.197,244.096c114.921,-115.696 308.743,-129.868 404.692,-136.518c168.728,-11.694 448.175,-10.973 448.175,-10.973l-10.025,-14.56c0,-0 -284.396,1.846 -439.304,14.301c-95.955,7.714 -289.605,35.381 -408.694,133.735l5.156,14.015Z" style="fill:#253a63;"/><path d="M451.445,289.033c0,-2.496 0.156,-5.253 0.469,-8.269c0.312,-3.017 0.78,-5.461 1.404,-7.334c4.993,-0.416 8.79,-1.248 11.39,-2.496c2.601,-1.248 4.421,-3.589 5.461,-7.022c1.04,-3.432 1.561,-8.269 1.561,-14.51l-0,-78.328c-0,-6.449 -0.521,-11.286 -1.561,-14.511c-1.04,-3.225 -2.86,-5.461 -5.461,-6.709c-2.6,-1.249 -6.397,-2.081 -11.39,-2.497c-0.832,-2.08 -1.352,-4.525 -1.56,-7.333c-0.209,-2.809 -0.313,-5.565 -0.313,-8.27c3.329,0 7.126,0.052 11.391,0.156c4.265,0.104 8.685,0.208 13.262,0.312c4.577,0.104 8.842,0.156 12.795,0.156c4.161,0 8.322,-0.052 12.482,-0.156c4.161,-0.104 8.374,-0.208 12.639,-0.312c4.265,-0.104 8.166,-0.156 11.702,-0.156c0,2.705 -0.052,5.305 -0.156,7.802c-0.104,2.496 -0.572,5.097 -1.404,7.801c-4.785,0.208 -8.582,0.988 -11.39,2.341c-2.809,1.352 -4.733,3.64 -5.773,6.865c-1.041,3.225 -1.561,8.062 -1.561,14.511l0,78.328c0,6.241 0.52,11.078 1.561,14.51c1.04,3.433 2.964,5.774 5.773,7.022c2.808,1.248 6.605,2.08 11.39,2.496c0.624,1.873 1.04,4.265 1.248,7.178c0.208,2.912 0.312,5.721 0.312,8.425c-4.993,-0.208 -10.662,-0.364 -17.007,-0.468c-6.345,-0.104 -12.743,-0.156 -19.192,-0.156c-6.241,0 -12.899,0.052 -19.972,0.156c-7.073,0.104 -13.107,0.26 -18.1,0.468Z" style="fill:url(#_Linear2);fill-rule:nonzero;"/><path d="M687.052,290.594c-2.496,-4.993 -5.669,-10.61 -9.517,-16.852c-3.849,-6.241 -7.646,-12.586 -11.391,-19.035c-2.912,-5.409 -6.033,-10.038 -9.362,-13.887c-3.328,-3.849 -6.813,-7.282 -10.454,-10.298c-3.64,-3.017 -7.749,-5.773 -12.326,-8.27l8.426,2.497c-4.993,0.208 -9.466,0.312 -13.419,0.312c-3.953,-0 -7.906,-0.104 -11.858,-0.312l0.624,-17.788c2.912,0.416 5.305,0.728 7.177,0.936c1.872,0.208 3.849,0.312 5.929,0.312c9.154,0 17.372,-1.144 24.653,-3.432c7.282,-2.289 13.003,-5.669 17.164,-10.142c4.16,-4.473 6.241,-10.142 6.241,-17.008c-0,-9.57 -3.173,-17.163 -9.518,-22.78c-6.345,-5.617 -16.903,-8.426 -31.674,-8.426c-3.745,-0 -7.074,0.156 -9.986,0.468c-2.913,0.312 -6.034,0.884 -9.362,1.716l1.248,-7.489l0,108.286c0,7.073 0.52,12.378 1.56,15.915c1.041,3.536 2.757,5.877 5.149,7.021c2.393,1.144 5.774,1.82 10.142,2.029c0.625,1.456 1.041,3.588 1.249,6.397c0.208,2.808 0.312,5.565 0.312,8.269c-3.745,-0.208 -7.906,-0.364 -12.483,-0.468c-4.577,-0.104 -8.998,-0.156 -13.262,-0.156l-10.767,0c-5.617,0 -11.754,0.052 -18.411,0.156c-6.658,0.104 -12.379,0.26 -17.164,0.468c0,-3.12 0.104,-5.929 0.312,-8.425c0.208,-2.497 0.625,-4.577 1.249,-6.241c4.993,-0.417 8.841,-1.301 11.546,-2.653c2.704,-1.352 4.577,-3.693 5.617,-7.021c1.04,-3.329 1.56,-8.218 1.56,-14.667l0,-79.264c0,-6.449 -0.52,-11.286 -1.56,-14.511c-1.04,-3.225 -2.913,-5.513 -5.617,-6.865c-2.705,-1.353 -6.553,-2.133 -11.546,-2.341c-0.624,-2.08 -1.041,-4.629 -1.249,-7.645c-0.208,-3.017 -0.312,-5.566 -0.312,-7.646c2.289,0 5.409,0.052 9.362,0.156c3.953,0.104 8.27,0.208 12.951,0.312c4.681,0.104 9.206,0.156 13.574,0.156c7.49,0 15.5,-0.156 24.029,-0.468c8.53,-0.312 16.852,-0.468 24.965,-0.468c14.979,-0 27.046,1.924 36.199,5.773c9.154,3.849 15.864,8.946 20.129,15.291c4.264,6.345 6.397,13.471 6.397,21.376c-0,8.946 -2.133,16.8 -6.397,23.561c-4.265,6.762 -10.247,12.119 -17.944,16.071c-7.698,3.953 -16.747,6.45 -27.149,7.49l2.808,-3.121c3.745,1.665 7.021,3.329 9.83,4.993c2.809,1.665 5.409,3.693 7.802,6.085c2.392,2.393 5.045,5.514 7.957,9.362c2.913,3.849 6.345,8.686 10.298,14.511c4.993,7.282 10.194,12.483 15.603,15.603c5.409,3.121 12.171,4.889 20.284,5.305c0,2.705 -0.052,5.253 -0.156,7.646c-0.104,2.392 -0.572,4.733 -1.404,7.021c-8.946,0 -17.631,0.156 -26.057,0.468c-8.426,0.312 -15.759,0.885 -22.001,1.717Z" style="fill:url(#_Linear3);fill-rule:nonzero;"/><path d="M759.139,289.033c-0,-2.912 0.156,-5.669 0.468,-8.269c0.312,-2.601 0.78,-5.045 1.404,-7.334c4.577,-0.832 8.166,-2.756 10.766,-5.773c2.601,-3.016 5.982,-8.998 10.142,-17.943l53.987,-117.648c2.705,-0.416 5.045,-0.728 7.022,-0.936c1.976,-0.208 4.42,-0.312 7.333,-0.312l58.668,118.896c4.785,9.57 8.686,15.811 11.702,18.723c3.017,2.913 6.397,4.577 10.142,4.993c0.624,1.873 1.092,4.109 1.404,6.71c0.312,2.6 0.469,5.565 0.469,8.893c-2.497,-0.208 -5.93,-0.312 -10.299,-0.312c-4.368,0 -8.737,-0.052 -13.106,-0.156c-4.369,-0.104 -8.01,-0.156 -10.922,-0.156l-7.958,0c-3.225,0 -6.657,0.052 -10.298,0.156c-3.641,0.104 -7.021,0.208 -10.142,0.312c-3.121,0.104 -5.617,0.156 -7.489,0.156c-0,-3.536 0.104,-6.501 0.312,-8.893c0.208,-2.393 0.728,-4.629 1.56,-6.71c6.449,-1.04 10.454,-2.704 12.014,-4.993c1.561,-2.288 0.988,-6.449 -1.716,-12.482l-29.334,-61.476c-2.704,-6.034 -5.149,-11.391 -7.333,-16.072c-2.185,-4.681 -4.005,-9.83 -5.461,-15.447l2.808,0c-1.664,6.242 -3.537,11.599 -5.617,16.071c-2.08,4.473 -4.265,9.206 -6.553,14.199l-25.902,58.98c-2.704,6.241 -3.38,11.182 -2.028,14.823c1.352,3.641 5.253,5.773 11.702,6.397c0.625,2.081 1.093,4.369 1.405,6.866c0.312,2.496 0.468,5.409 0.468,8.737c-1.873,-0.208 -4.369,-0.312 -7.49,-0.312c-3.12,0 -16.435,-0.312 -19.348,-0.312c-4.16,0 -8.373,0.052 -12.638,0.156c-4.265,0.104 -7.646,0.26 -10.142,0.468Zm36.511,-42.44l4.369,-15.915l68.342,-0l3.12,13.731c-13.522,-0 -26.785,0.104 -39.788,0.312c-13.002,0.208 -25.017,0.832 -36.043,1.872Z" style="fill:url(#_Linear4);fill-rule:nonzero;"/><path d="M1044.68,290.594c-19.14,-0 -35.679,-3.433 -49.618,-10.298c-13.939,-6.866 -24.705,-16.332 -32.298,-28.398c-7.594,-12.066 -11.391,-26.005 -11.391,-41.816c0,-18.1 4.473,-32.975 13.419,-44.625c8.946,-11.651 20.856,-20.388 35.731,-26.213c14.875,-5.826 31.154,-8.738 48.838,-8.738c7.489,-0 15.187,0.468 23.092,1.404c7.906,0.936 15.343,2.289 22.313,4.057c6.969,1.768 12.846,3.797 17.631,6.085c-1.248,5.201 -2.028,10.818 -2.34,16.851c-0.312,6.034 -0.468,12.379 -0.468,19.036c-2.913,1.249 -5.877,1.977 -8.894,2.185c-3.017,0.208 -6.085,0.312 -9.206,0.312c-0.416,-8.738 -2.548,-15.655 -6.397,-20.752c-3.849,-5.097 -8.894,-8.686 -15.135,-10.767c-6.241,-2.08 -13.419,-3.12 -21.532,-3.12c-13.939,-0 -25.329,2.652 -34.171,7.957c-8.842,5.306 -15.395,12.587 -19.66,21.845c-4.265,9.258 -6.397,19.712 -6.397,31.362c-0,12.483 2.236,23.769 6.709,33.859c4.473,10.09 11.494,18.151 21.064,24.185c9.57,6.033 21.845,9.049 36.823,9.049c2.289,0 5.202,-0.156 8.738,-0.468c3.537,-0.312 6.762,-0.78 9.674,-1.404c3.329,-1.04 5.617,-2.652 6.866,-4.837c1.248,-2.184 1.872,-6.085 1.872,-11.702l-0,-9.05c-0,-5.409 -0.52,-9.362 -1.56,-11.858c-1.041,-2.497 -3.121,-4.265 -6.242,-5.305c-3.12,-1.041 -7.905,-1.665 -14.355,-1.873c-0.624,-2.08 -1.092,-4.421 -1.404,-7.021c-0.312,-2.601 -0.468,-5.461 -0.468,-8.582c3.745,0.208 9.05,0.364 15.915,0.468c6.866,0.104 13.107,0.156 18.724,0.156c5.617,0 11.754,-0.052 18.412,-0.156c6.657,-0.104 11.858,-0.26 15.603,-0.468c-0,2.705 -0.104,5.357 -0.312,7.958c-0.208,2.6 -0.624,5.149 -1.248,7.645c-5.41,0.416 -8.842,1.613 -10.299,3.589c-1.456,1.976 -2.184,6.397 -2.184,13.263l0,7.489c0,4.785 0.312,8.634 0.936,11.546c0.624,2.913 1.665,6.034 3.121,9.362c-7.49,4.785 -17.476,8.946 -29.958,12.483c-12.483,3.536 -25.797,5.305 -39.944,5.305Z" style="fill:url(#_Linear5);fill-rule:nonzero;"/><path d="M1166.69,131.754c4.161,0 9.674,0.052 16.54,0.156c6.865,0.104 13.782,0.208 20.752,0.312c6.969,0.104 12.534,0.156 16.695,0.156l0,115.463c0,9.778 1.56,16.436 4.681,19.972c3.121,3.537 9.57,5.305 19.348,5.305l-3.433,15.291l-17.787,0c-7.074,0 -14.355,0.052 -21.845,0.156c-7.489,0.104 -14.303,0.208 -20.44,0.312c-6.137,0.104 -10.974,0.156 -14.511,0.156c0,-2.912 0.104,-5.773 0.312,-8.581c0.208,-2.809 0.624,-5.149 1.249,-7.022c4.993,-0.416 8.841,-1.248 11.546,-2.496c2.704,-1.248 4.577,-3.641 5.617,-7.178c1.04,-3.536 1.56,-8.633 1.56,-15.291l0,-77.391c0,-6.449 -0.572,-11.286 -1.716,-14.511c-1.144,-3.225 -3.069,-5.461 -5.773,-6.709c-2.705,-1.249 -6.45,-2.081 -11.234,-2.497c-0.625,-2.08 -1.041,-4.629 -1.249,-7.645c-0.208,-3.017 -0.312,-5.669 -0.312,-7.958Zm129.194,110.782c3.537,0.624 6.709,1.56 9.518,2.809c2.808,1.248 5.045,2.704 6.709,4.369c-2.08,5.201 -3.797,11.286 -5.149,18.255c-1.352,6.97 -2.444,13.887 -3.276,20.752c-3.953,0 -9.206,-0.052 -15.76,-0.156c-6.553,-0.104 -13.834,-0.156 -21.844,-0.156l-24.809,0l3.433,-15.291l2.184,0c11.443,0 20.232,-1.092 26.37,-3.276c6.137,-2.185 10.818,-5.513 14.042,-9.986c3.225,-4.473 6.086,-10.246 8.582,-17.32Zm-18.412,-58.668c-0.208,3.953 -0.364,8.01 -0.468,12.171c-0.104,4.161 -0.156,8.946 -0.156,14.355c0,5.617 0.052,10.662 0.156,15.135c0.104,4.473 0.26,8.477 0.468,12.014c-3.12,0 -5.825,-0.156 -8.113,-0.468c-2.289,-0.312 -4.681,-0.884 -7.178,-1.716c-0.624,-6.658 -2.912,-11.13 -6.865,-13.419c-3.953,-2.288 -10.922,-3.433 -20.908,-3.433l-18.412,0l0,-15.291l18.412,0c10.194,0 17.215,-1.248 21.064,-3.744c3.849,-2.497 5.877,-6.866 6.085,-13.107c2.705,-1.04 5.305,-1.716 7.802,-2.028c2.496,-0.313 5.201,-0.469 8.113,-0.469Zm19.036,-52.114c0.624,5.409 1.404,12.014 2.341,19.816c0.936,7.802 2.132,14.303 3.588,19.504c-1.872,1.04 -4.161,1.924 -6.865,2.652c-2.705,0.729 -5.825,1.093 -9.362,1.093c-0.624,-5.201 -2.184,-9.882 -4.681,-14.043c-2.496,-4.161 -6.761,-7.438 -12.794,-9.83c-6.034,-2.393 -14.563,-3.589 -25.59,-3.589l-29.957,0l6.553,-14.979c14.355,0 26.577,-0.052 36.667,-0.156c10.09,-0.104 18.464,-0.208 25.121,-0.312c6.657,-0.104 11.65,-0.156 14.979,-0.156Z" style="fill:url(#_Linear6);fill-rule:nonzero;"/></g><defs><radialGradient id="_Radial1" cx="0" cy="0" r="1" gradientUnits="userSpaceOnUse" gradientTransform="matrix(382.465,232.818,-232.818,382.465,150.617,22.9144)"><stop offset="0" style="stop-color:#00b5ff;stop-opacity:1"/><stop offset="0.59" style="stop-color:#0397dd;stop-opacity:1"/><stop offset="0.81" style="stop-color:#095290;stop-opacity:1"/><stop offset="1" style="stop-color:#100d42;stop-opacity:1"/></radialGradient><linearGradient id="_Linear2" x1="0" y1="0" x2="1" y2="0" gradientUnits="userSpaceOnUse" gradientTransform="matrix(716.091,122.847,-122.847,716.091,455.09,150.5)"><stop offset="0" style="stop-color:#46acdf;stop-opacity:1"/><stop offset="1" style="stop-color:#253a63;stop-opacity:1"/></linearGradient><linearGradient id="_Linear3" x1="0" y1="0" x2="1" y2="0" gradientUnits="userSpaceOnUse" gradientTransform="matrix(716.091,122.847,-122.847,716.091,455.09,150.5)"><stop offset="0" style="stop-color:#46acdf;stop-opacity:1"/><stop offset="1" style="stop-color:#253a63;stop-opacity:1"/></linearGradient><linearGradient id="_Linear4" x1="0" y1="0" x2="1" y2="0" gradientUnits="userSpaceOnUse" gradientTransform="matrix(716.091,122.847,-122.847,716.091,455.09,150.5)"><stop offset="0" style="stop-color:#46acdf;stop-opacity:1"/><stop offset="1" style="stop-color:#253a63;stop-opacity:1"/></linearGradient><linearGradient id="_Linear5" x1="0" y1="0" x2="1" y2="0" gradientUnits="userSpaceOnUse" gradientTransform="matrix(716.091,122.847,-122.847,716.091,455.09,150.5)"><stop offset="0" style="stop-color:#46acdf;stop-opacity:1"/><stop offset="1" style="stop-color:#253a63;stop-opacity:1"/></linearGradient><linearGradient id="_Linear6" x1="0" y1="0" x2="1" y2="0" gradientUnits="userSpaceOnUse" gradientTransform="matrix(716.091,122.847,-122.847,716.091,455.09,150.5)"><stop offset="0" style="stop-color:#46acdf;stop-opacity:1"/><stop offset="1" style="stop-color:#253a63;stop-opacity:1"/></linearGradient></defs></svg>