<?xml version="1.0" encoding="UTF-8" standalone="no"?><!DOCTYPE svg PUBLIC "-//W3C//DTD SVG 1.1//EN" "http://www.w3.org/Graphics/SVG/1.1/DTD/svg11.dtd"><svg width="100%" height="100%" viewBox="0 0 406 447" version="1.1" xmlns="http://www.w3.org/2000/svg" xmlns:xlink="http://www.w3.org/1999/xlink" xml:space="preserve" xmlns:serif="http://www.serif.com/" style="fill-rule:evenodd;clip-rule:evenodd;stroke-linejoin:round;stroke-miterlimit:2;"><g><path d="M333.589,293.418c-21.396,32.628 -57.122,53.362 -96.862,53.44c-69.942,0.136 -127.275,-55.389 -127.406,-122.946c-0.133,-68.352 56.984,-124.099 126.926,-124.235c39.74,-0.077 75.545,20.518 97.067,52.268l71.403,-66.107c-39.047,-52.381 -99.516,-85.645 -168.663,-85.51c-130.346,0.253 -235.861,99.808 -235.62,223.795c0.24,123.193 106.14,222.337 236.486,222.084c66.763,-0.13 127.897,-33.63 166.739,-86.957l-70.07,-65.832Z" style="fill:#fff;fill-rule:nonzero;"/><clipPath id="_clip1"><path d="M0.434,220.241l234.18,0l-0,-219.897l-234.196,-0l0.016,219.897Z"/></clipPath><g clip-path="url(#_clip1)"><path d="M333.589,293.418c-21.396,32.628 -57.122,53.362 -96.862,53.44c-69.942,0.136 -127.275,-55.389 -127.406,-122.946c-0.133,-68.352 56.984,-124.099 126.926,-124.235c39.74,-0.077 75.545,20.518 97.067,52.268l71.403,-66.107c-39.047,-52.381 -99.516,-85.645 -168.663,-85.51c-130.346,0.253 -235.861,99.808 -235.62,223.795c0.24,123.193 106.14,222.337 236.486,222.084c66.763,-0.13 127.897,-33.63 166.739,-86.957l-70.07,-65.832Z" style="fill:#0cf;fill-rule:nonzero;"/></g><rect x="0.418" y="220.241" width="108.962" height="226.035" style="fill:#0cf;"/></g></svg>